<svg width="15" height="14" viewBox="0 0 15 14" fill="none" xmlns="http://www.w3.org/2000/svg">
<path d="M14.3354 5.58066C14.4067 5.51376 14.457 5.42959 14.4806 5.3375C14.5041 5.2454 14.5001 5.14896 14.4689 5.05889C14.4377 4.96881 14.3806 4.88861 14.3039 4.82717C14.2271 4.76573 14.1338 4.72546 14.0342 4.71082L10.2556 4.19475C10.0787 4.17155 9.91058 4.10778 9.7661 4.00908C9.62161 3.91038 9.50521 3.77978 9.42716 3.6288L7.73447 0.41123C7.68908 0.326904 7.61969 0.256056 7.53401 0.20656C7.44833 0.157064 7.34972 0.130859 7.24914 0.130859C7.14856 0.130859 7.04995 0.157064 6.96427 0.20656C6.87859 0.256056 6.8092 0.326904 6.76381 0.41123L5.07112 3.6288C4.9931 3.77975 4.87674 3.91033 4.7323 4.00903C4.58786 4.10773 4.41978 4.17151 4.2429 4.19475L0.463861 4.71082C0.363821 4.72479 0.269912 4.7647 0.192683 4.82606C0.115455 4.88741 0.0579668 4.96779 0.0266785 5.05815C-0.00460986 5.14851 -0.00845903 5.24528 0.0155635 5.33758C0.039586 5.42988 0.0905284 5.51406 0.162667 5.58066L2.89853 8.08557C3.02603 8.20255 3.12132 8.34692 3.17618 8.50622C3.23104 8.66552 3.24384 8.83496 3.21345 8.99994L2.56937 12.537C2.55315 12.6305 2.56487 12.7263 2.60323 12.8139C2.64159 12.9015 2.70508 12.9773 2.78663 13.033C2.86818 13.0887 2.96458 13.122 3.06509 13.1292C3.1656 13.1365 3.26627 13.1173 3.35589 13.074L6.73558 11.4051C6.8936 11.3276 7.06921 11.2871 7.24746 11.2871C7.42571 11.2871 7.60132 11.3276 7.75933 11.4051C7.76244 11.4039 11.139 13.0732 11.1421 13.0742C11.2318 13.1175 11.3324 13.1366 11.4329 13.1293C11.5334 13.1221 11.6298 13.0887 11.7113 13.033C11.7928 12.9773 11.8563 12.9015 11.8946 12.8139C11.9329 12.7263 11.9446 12.6304 11.9284 12.537L11.2843 8.99994C11.2539 8.83496 11.2667 8.66552 11.3216 8.50622C11.3764 8.34692 11.4717 8.20255 11.5992 8.08557L14.3354 5.58066Z" fill="#66BCCD"/>
</svg>
